<?xml version="1.0" encoding="UTF-8"?>
<svg width="16px" height="14px" viewBox="0 0 16 14" version="1.1" xmlns="http://www.w3.org/2000/svg" xmlns:xlink="http://www.w3.org/1999/xlink">
    <!-- Generator: Sketch 51.1 (57501) - http://www.bohemiancoding.com/sketch -->
    <title>Shape</title>
    <desc>Created with Sketch.</desc>
    <defs></defs>
    <g id="Dashboard-User-Login" stroke="none" stroke-width="1" fill="none" fill-rule="evenodd">
        <g id="User-Dashboard/Activityfeed" transform="translate(-282.000000, -338.000000)" fill="#FF4B2B" fill-rule="nonzero">
            <g id="side-bar-navigation" transform="translate(0.000000, 133.000000)">
                <path d="M287.137049,205 L292.274407,205 L293.558824,207.01532 L295.485294,207.01532 C296.017103,207.01532 296.471133,207.21567 296.847386,207.616369 C297.223638,208.017069 297.411765,208.495586 297.411765,209.051922 L297.411765,216.430896 C297.411765,216.987232 297.223638,217.460482 296.847386,217.850648 C296.471133,218.240814 296.017103,218.435897 295.485294,218.435897 L283.926471,218.435897 C283.394662,218.435897 282.940631,218.239095 282.564379,217.845489 C282.188126,217.451884 282,216.976913 282,216.420577 L282,209.041604 C282,208.485268 282.188126,208.008577 282.564379,207.611532 C282.940631,207.214487 283.394662,207.015965 283.926471,207.015965 L285.852941,207.015965 L287.137049,205 Z M289.705574,209.03064 C290.140391,209.03064 290.555995,209.119852 290.952386,209.298275 C291.348776,209.476698 291.68989,209.715527 291.975727,210.014761 C292.261564,210.313996 292.489864,210.670842 292.660626,211.085299 C292.831388,211.499757 292.916667,211.934528 292.916461,212.389615 C292.916256,212.844701 292.830977,213.279472 292.660626,213.69393 C292.490275,214.108387 292.261975,214.465233 291.975727,214.764468 C291.689479,215.063703 291.348365,215.302531 290.952386,215.480954 C290.556406,215.659377 290.140802,215.748589 289.705574,215.748589 C289.270346,215.748589 288.854742,215.659377 288.458762,215.480954 C288.062783,215.302531 287.721669,215.063703 287.435421,214.764468 C287.149173,214.465233 286.920874,214.108387 286.750522,213.69393 C286.580171,213.279472 286.494893,212.844701 286.494687,212.389615 C286.494482,211.934528 286.57976,211.499757 286.750522,211.085299 C286.921285,210.670842 287.149584,210.313996 287.435421,210.014761 C287.721258,209.715527 288.062372,209.476698 288.458762,209.298275 C288.855153,209.119852 289.270757,209.03064 289.705574,209.03064 Z M289.705574,210.373972 C289.173765,210.373972 288.719735,210.570775 288.343482,210.96438 C287.96723,211.357986 287.779104,211.832956 287.779104,212.389292 C287.779104,212.945628 287.96723,213.420599 288.343482,213.814204 C288.719735,214.20781 289.173765,214.404612 289.705574,214.404612 C290.237383,214.404612 290.691413,214.20781 291.067666,213.814204 C291.443918,213.420599 291.632045,212.945628 291.632045,212.389292 C291.632045,211.832956 291.443918,211.357986 291.067666,210.96438 C290.691413,210.570775 290.237383,210.373972 289.705574,210.373972 Z M292.871151,208.358652 L291.612009,206.343332 L287.824414,206.343332 L286.539998,208.358652 L283.926162,208.358652 C283.748824,208.358652 283.597481,208.425184 283.472132,208.558249 C283.346783,208.691314 283.284108,208.852217 283.284108,209.040959 L283.284108,216.419932 C283.284108,216.605449 283.346783,216.763773 283.472132,216.894903 C283.597481,217.026033 283.748824,217.091598 283.926162,217.091598 L295.484986,217.091598 C295.665612,217.091598 295.817777,217.027753 295.941482,216.900062 C296.065187,216.772372 296.12704,216.615768 296.12704,216.430251 L296.12704,209.051277 C296.12704,208.862321 296.063441,208.69959 295.936242,208.563086 C295.809044,208.426582 295.658522,208.358329 295.484678,208.358329 L292.870842,208.358329 L292.871151,208.358652 Z" id="Shape"></path>
            </g>
        </g>
    </g>
</svg>