<?xml version="1.0" encoding="UTF-8"?>
<svg width="49px" height="49px" viewBox="0 0 49 49" version="1.1" xmlns="http://www.w3.org/2000/svg" xmlns:xlink="http://www.w3.org/1999/xlink">
    <!-- Generator: Sketch 51.1 (57501) - http://www.bohemiancoding.com/sketch -->
    <title>edit</title>
    <desc>Created with Sketch.</desc>
    <defs>
        <polygon id="path-1" points="0.000185185185 0.000555555556 48.618249 0.000555555556 48.618249 48.8368519 0.000185185185 48.8368519"></polygon>
    </defs>
    <g id="Symbols" stroke="none" stroke-width="1" fill="none" fill-rule="evenodd">
        <g id="symbol/edit-2">
            <g id="edit">
                <mask id="mask-2" fill="white">
                    <use xlink:href="#path-1"></use>
                </mask>
                <g id="Clip-2"></g>
                <path d="M18.3038889,22.1146296 L35.4112963,5.00907407 C37.102037,3.31833333 40.4038889,3.77203704 42.6261111,5.99055556 C44.8464815,8.21462963 45.2983333,11.5183333 43.6094444,13.2072222 L26.502037,30.3127778 L17.9001852,30.7164815 L18.3038889,22.1146296 Z M14.3612963,21.1572222 L13.8205556,32.7146296 C13.7946296,33.2738889 14.0038889,33.8201852 14.402037,34.2164815 C14.7742593,34.5905556 15.2835185,34.7998148 15.8094444,34.7998148 C15.8409259,34.7998148 15.8724074,34.797963 15.9038889,34.797963 L27.4612963,34.2553704 C27.9557407,34.2312963 28.4242593,34.0257407 28.7761111,33.6757407 L46.4261111,16.0238889 C49.6983333,12.7516667 49.2557407,6.9887037 45.4427778,3.17388889 C41.627963,-0.637222222 35.865,-1.07981481 32.5927778,2.19055556 L14.9427778,19.8424074 C14.5927778,20.1924074 14.3835185,20.6627778 14.3612963,21.1572222 Z M45.8187037,28.2442593 C44.7168519,28.2442593 43.8261111,29.135 43.8261111,30.235 L43.8261111,38.9998148 C43.8261111,42.2275926 41.2001852,44.8535185 37.9742593,44.8535185 L9.83722222,44.8535185 C6.6112963,44.8535185 3.98351852,42.2275926 3.98351852,38.9998148 L3.98351852,10.8646296 C3.98351852,7.63685185 6.6112963,5.01092593 9.83722222,5.01092593 L18.4205556,5.01092593 C19.5224074,5.01092593 20.4131481,4.11833333 20.4131481,3.01833333 C20.4131481,1.91833333 19.5205556,1.02759259 18.4205556,1.02759259 L9.83722222,1.02759259 C4.415,1.02759259 0.000185185185,5.44055556 0.000185185185,10.8646296 L0.000185185185,38.9998148 C0.000185185185,44.422037 4.415,48.8368519 9.83722222,48.8368519 L37.9742593,48.8368519 C43.3964815,48.8368519 47.8094444,44.422037 47.8094444,38.9998148 L47.8094444,30.235 C47.8094444,29.135 46.9205556,28.2442593 45.8187037,28.2442593 Z" id="Fill-1" fill="#CBCBCB" mask="url(#mask-2)"></path>
            </g>
        </g>
    </g>
</svg>