<?xml version="1.0" encoding="UTF-8"?>
<svg width="45px" height="45px" viewBox="0 0 45 45" version="1.1" xmlns="http://www.w3.org/2000/svg" xmlns:xlink="http://www.w3.org/1999/xlink">
    <!-- Generator: Sketch 51.1 (57501) - http://www.bohemiancoding.com/sketch -->
    <title>Group 13 Copy</title>
    <desc>Created with Sketch.</desc>
    <defs></defs>
    <g id="Symbols" stroke="none" stroke-width="1" fill="none" fill-rule="evenodd">
        <g id="symbol/expand-1" fill-rule="nonzero">
            <g id="Group-13-Copy">
                <circle id="Oval-5" fill="#FFFFFF" opacity="0.75" cx="22.5" cy="22.5" r="22.5"></circle>
                <path d="M24.6002016,25.5 C24.7659003,25.5 24.9080785,25.5593765 25.0267364,25.6781295 L28.8001728,29.4484892 L28.8001728,26.6991367 C28.8001728,26.5335731 28.8587337,26.3922782 28.9758556,26.2752518 C29.0929775,26.1582254 29.2343878,26.0997122 29.4000864,26.0997122 C29.5657851,26.0997122 29.7071953,26.1582254 29.8243172,26.2752518 C29.9414391,26.3922782 30,26.5335731 30,26.6991367 L30,30.8956835 C30,31.061247 29.940575,31.2033094 29.8217251,31.3218705 C29.7028752,31.4404317 29.560697,31.4998082 29.3951903,31.5 L25.1952191,31.5 C25.0295205,31.5 24.8881102,31.4414868 24.7709883,31.3244604 C24.6538665,31.2074341 24.5953055,31.0661391 24.5953055,30.9005755 C24.5953055,30.735012 24.6538665,30.593717 24.7709883,30.4766906 C24.8881102,30.3596643 25.0295205,30.3011511 25.1952191,30.3011511 L27.9468151,30.3011511 L24.1733788,26.5307914 C24.0577929,26.4089688 24,26.2669065 24,26.1046043 C24,25.9390408 24.0585609,25.7969784 24.1756828,25.6784173 C24.2928047,25.5598561 24.4342149,25.5004796 24.5999136,25.5002878 L24.6002016,25.5 Z M14.0999136,15 L18.2998848,15 C18.4655834,15 18.6069937,15.0586088 18.7241156,15.1758263 C18.8412375,15.2930438 18.8997984,15.4345695 18.8997984,15.6004035 C18.8997984,15.7662374 18.8412375,15.9077632 18.7241156,16.0249807 C18.6069937,16.1421982 18.4655834,16.200807 18.2998848,16.200807 L15.5482888,16.200807 L19.3217251,19.9727129 C19.440575,20.0916599 19.5,20.2339542 19.5,20.399596 C19.5,20.5652378 19.440575,20.7067636 19.3217251,20.8241733 C19.2028752,20.9415829 19.060697,21.0001917 18.8951903,20.9999995 C18.7358278,20.9999995 18.5936495,20.9421594 18.4686555,20.8264792 L14.6998272,17.0499614 L14.6998272,19.8038044 C14.6998272,19.9696383 14.6412663,20.1111641 14.5241444,20.2283816 C14.4070225,20.3455991 14.2656122,20.4042079 14.0999136,20.4042079 C13.9342149,20.4042079 13.7928047,20.3455991 13.6756828,20.2283816 C13.5585609,20.1111641 13.5,19.9696383 13.5,19.8038044 L13.5,15.6004035 C13.5,15.4345695 13.5585609,15.2930438 13.6756828,15.1758263 C13.7928047,15.0586088 13.9342149,15 14.0999136,15 Z" id="Shape" fill="#FF4B2B"></path>
            </g>
        </g>
    </g>
</svg>