<?xml version="1.0" encoding="UTF-8"?>
<svg width="17px" height="18px" viewBox="0 0 17 18" version="1.1" xmlns="http://www.w3.org/2000/svg" xmlns:xlink="http://www.w3.org/1999/xlink">
    <!-- Generator: Sketch 51.1 (57501) - http://www.bohemiancoding.com/sketch -->
    <title>Group 7</title>
    <desc>Created with Sketch.</desc>
    <defs>
        <path d="M3.081,0.514 C2.854,1.488 2.626,2.463 2.399,3.438 C2.367,3.574 2.335,3.71 2.304,3.846 C2.219,4.206 2.411,4.62 2.796,4.71 L5.73,5.389 L6.141,5.484 C6.514,5.571 6.902,5.374 7.007,4.994 C7.105,4.637 6.888,4.217 6.515,4.131 C5.852,3.977 5.189,3.824 4.527,3.67 C4.91,3.415 5.317,3.193 5.74,3.009 C6.322,2.772 6.931,2.607 7.552,2.515 C8.185,2.439 8.823,2.439 9.456,2.515 C10.077,2.607 10.686,2.772 11.268,3.009 C11.825,3.252 12.352,3.558 12.837,3.922 C13.315,4.3 13.749,4.732 14.128,5.208 C14.494,5.692 14.802,6.218 15.046,6.772 C15.282,7.353 15.448,7.959 15.54,8.578 C15.617,9.208 15.617,9.845 15.54,10.475 C15.448,11.093 15.282,11.7 15.046,12.279 C14.802,12.835 14.494,13.359 14.128,13.844 C13.749,14.321 13.316,14.752 12.837,15.13 C12.352,15.494 11.825,15.801 11.268,16.044 C10.686,16.28 10.077,16.446 9.456,16.537 C8.823,16.613 8.185,16.613 7.552,16.537 C6.931,16.446 6.322,16.28 5.741,16.044 C5.183,15.801 4.656,15.494 4.17,15.13 C3.693,14.753 3.261,14.322 2.881,13.846 C2.515,13.361 2.208,12.837 1.964,12.283 C1.727,11.702 1.56,11.096 1.468,10.476 C1.426,10.138 1.408,9.798 1.409,9.458 C1.412,9.076 1.087,8.756 0.705,8.756 C0.318,8.756 0.003,9.076 3.41572202e-13,9.458 C-0.015,11.785 0.948,14.056 2.64,15.663 C4.132,17.077 6.105,17.898 8.158,17.992 C9.13,18.036 10.126,17.902 11.054,17.611 C12.064,17.293 12.981,16.788 13.812,16.141 C15.392,14.909 16.5,13.062 16.859,11.099 C17.222,9.108 16.882,7.036 15.866,5.28 C14.823,3.479 13.11,2.118 11.134,1.467 C9.282,0.857 7.184,0.921 5.375,1.65 C4.938,1.826 4.517,2.034 4.116,2.274 C4.192,1.948 4.269,1.622 4.345,1.296 C4.377,1.159 4.408,1.023 4.44,0.887 C4.527,0.515 4.329,0.129 3.948,0.024 C3.889,0.008 3.829,0 3.768,0 C3.46,0 3.154,0.202 3.081,0.514 Z" id="path-1"></path>
        <path d="M3.081,0.514 C2.854,1.488 2.626,2.463 2.399,3.438 C2.367,3.574 2.335,3.71 2.304,3.846 C2.219,4.206 2.411,4.62 2.796,4.71 L5.73,5.389 L6.141,5.484 C6.514,5.571 6.902,5.374 7.007,4.994 C7.105,4.637 6.888,4.217 6.515,4.131 C5.852,3.977 5.189,3.824 4.527,3.67 C4.91,3.415 5.317,3.193 5.74,3.009 C6.322,2.772 6.931,2.607 7.552,2.515 C8.185,2.439 8.823,2.439 9.456,2.515 C10.077,2.607 10.686,2.772 11.268,3.009 C11.825,3.252 12.352,3.558 12.837,3.922 C13.315,4.3 13.749,4.732 14.128,5.208 C14.494,5.692 14.802,6.218 15.046,6.772 C15.282,7.353 15.448,7.959 15.54,8.578 C15.617,9.208 15.617,9.845 15.54,10.475 C15.448,11.093 15.282,11.7 15.046,12.279 C14.802,12.835 14.494,13.359 14.128,13.844 C13.749,14.321 13.316,14.752 12.837,15.13 C12.352,15.494 11.825,15.801 11.268,16.044 C10.686,16.28 10.077,16.446 9.456,16.537 C8.823,16.613 8.185,16.613 7.552,16.537 C6.931,16.446 6.322,16.28 5.741,16.044 C5.183,15.801 4.656,15.494 4.17,15.13 C3.693,14.753 3.261,14.322 2.881,13.846 C2.515,13.361 2.208,12.837 1.964,12.283 C1.727,11.702 1.56,11.096 1.468,10.476 C1.426,10.138 1.408,9.798 1.409,9.458 C1.412,9.076 1.087,8.756 0.705,8.756 C0.318,8.756 0.003,9.076 3.41572202e-13,9.458 C-0.015,11.785 0.948,14.056 2.64,15.663 C4.132,17.077 6.105,17.898 8.158,17.992 C9.13,18.036 10.126,17.902 11.054,17.611 C12.064,17.293 12.981,16.788 13.812,16.141 C15.392,14.909 16.5,13.062 16.859,11.099 C17.222,9.108 16.882,7.036 15.866,5.28 C14.823,3.479 13.11,2.118 11.134,1.467 C9.282,0.857 7.184,0.921 5.375,1.65 C4.938,1.826 4.517,2.034 4.116,2.274 C4.192,1.948 4.269,1.622 4.345,1.296 C4.377,1.159 4.408,1.023 4.44,0.887 C4.527,0.515 4.329,0.129 3.948,0.024 C3.89,0.008 3.828,0 3.768,0 C3.46,0 3.154,0.202 3.081,0.514 Z" id="path-3"></path>
    </defs>
    <g id="Symbols" stroke="none" stroke-width="1" fill="none" fill-rule="evenodd">
        <g id="button/kitchensettings/clockwise-2" transform="translate(-63.000000, -94.000000)">
            <g id="Group-7" transform="translate(63.000000, 94.000000)">
                <path d="M15.8658,5.2806 C14.8238,3.4796 13.1098,2.1186 11.1338,1.4676 C9.2818,0.8566 7.1838,0.9216 5.3748,1.6496 C4.9378,1.8256 4.5168,2.0336 4.1168,2.2746 C4.1928,1.9476 4.2688,1.6216 4.3448,1.2956 C4.3768,1.1596 4.4078,1.0236 4.4408,0.8876 C4.5268,0.5146 4.3288,0.1286 3.9488,0.0236 C3.5898,-0.0744 3.1678,0.1416 3.0808,0.5136 C2.8538,1.4886 2.6268,2.4636 2.3988,3.4376 C2.3668,3.5736 2.3358,3.7096 2.3038,3.8456 C2.2198,4.2066 2.4108,4.6206 2.7958,4.7096 L5.7298,5.3896 L6.1398,5.4846 C6.5138,5.5716 6.9018,5.3736 7.0068,4.9936 C7.1058,4.6366 6.8888,4.2176 6.5148,4.1306 C5.8518,3.9766 5.1898,3.8236 4.5268,3.6696 C4.9108,3.4146 5.3168,3.1926 5.7408,3.0086 C6.3228,2.7726 6.9308,2.6076 7.5518,2.5156 C8.1838,2.4396 8.8238,2.4396 9.4558,2.5156 C10.0768,2.6076 10.6858,2.7726 11.2678,3.0086 C11.8248,3.2516 12.3508,3.5576 12.8378,3.9216 C13.3158,4.3006 13.7488,4.7316 14.1288,5.2086 C14.4938,5.6926 14.8018,6.2176 15.0458,6.7726 C15.2828,7.3526 15.4488,7.9586 15.5398,8.5776 C15.6168,9.2076 15.6168,9.8446 15.5398,10.4746 C15.4488,11.0936 15.2828,11.6996 15.0458,12.2796 C14.8018,12.8346 14.4938,13.3596 14.1288,13.8436 C13.7488,14.3206 13.3158,14.7516 12.8378,15.1306 C12.3518,15.4946 11.8248,15.8016 11.2678,16.0446 C10.6858,16.2796 10.0768,16.4456 9.4558,16.5366 C8.8238,16.6136 8.1838,16.6136 7.5518,16.5366 C6.9308,16.4456 6.3228,16.2806 5.7408,16.0446 C5.1828,15.8016 4.6568,15.4946 4.1698,15.1306 C3.6928,14.7526 3.2608,14.3216 2.8808,13.8456 C2.5158,13.3616 2.2078,12.8376 1.9638,12.2826 C1.7268,11.7016 1.5598,11.0956 1.4678,10.4756 C1.4268,10.1376 1.4078,9.7986 1.4088,9.4586 C1.4118,9.0756 1.0868,8.7566 0.7048,8.7566 C0.3188,8.7566 0.0028,9.0756 -0.0002,9.4586 C-0.0152,11.7856 0.9478,14.0566 2.6398,15.6626 C4.1318,17.0776 6.1048,17.8976 8.1578,17.9916 C9.1308,18.0356 10.1258,17.9016 11.0538,17.6106 C12.0638,17.2936 12.9808,16.7886 13.8128,16.1406 C15.3918,14.9086 16.4998,13.0626 16.8588,11.0986 C17.2218,9.1086 16.8828,7.0366 15.8658,5.2806" id="Fill-1" fill="#FF4B2B"></path>
                <mask id="mask-2" fill="white">
                    <use xlink:href="#path-1"></use>
                </mask>
                <g id="Clip-4"></g>
                <mask id="mask-4" fill="white">
                    <use xlink:href="#path-3"></use>
                </mask>
                <g id="Clip-7"></g>
                <polygon id="Fill-6" fill="#FF4B2B" mask="url(#mask-4)" points="-5 23 22 23 22 -5 -5 -5"></polygon>
            </g>
        </g>
    </g>
</svg>