<?xml version="1.0" encoding="UTF-8"?>
<svg width="66px" height="104px" viewBox="0 0 66 104" version="1.1" xmlns="http://www.w3.org/2000/svg" xmlns:xlink="http://www.w3.org/1999/xlink">
    <!-- Generator: Sketch 51.1 (57501) - http://www.bohemiancoding.com/sketch -->
    <title>Group 5</title>
    <desc>Created with Sketch.</desc>
    <defs>
        <filter x="-17.4%" y="-42.1%" width="134.8%" height="215.9%" filterUnits="objectBoundingBox" id="filter-1">
            <feOffset dx="0" dy="10" in="SourceAlpha" result="shadowOffsetOuter1"></feOffset>
            <feGaussianBlur stdDeviation="10.5" in="shadowOffsetOuter1" result="shadowBlurOuter1"></feGaussianBlur>
            <feColorMatrix values="0 0 0 0 0   0 0 0 0 0   0 0 0 0 0  0 0 0 0.2 0" type="matrix" in="shadowBlurOuter1" result="shadowMatrixOuter1"></feColorMatrix>
            <feMerge>
                <feMergeNode in="shadowMatrixOuter1"></feMergeNode>
                <feMergeNode in="SourceGraphic"></feMergeNode>
            </feMerge>
        </filter>
    </defs>
    <g id="Dashboard-User-Login" stroke="none" stroke-width="1" fill="none" fill-rule="evenodd">
        <g id="User-Dashboard/Step-2" transform="translate(-131.000000, -842.000000)">
            <g id="Video-Player-Editor" transform="translate(-12.000000, 216.000000)">
                <g id="video-crop" filter="url(#filter-1)" transform="translate(164.000000, 637.000000)">
                    <g id="Group-5">
                        <path d="M5,0 L23.5,0 L23.5,62 L5,62 C2.23857625,62 3.38176876e-16,59.7614237 0,57 L0,5 C-3.38176876e-16,2.23857625 2.23857625,5.07265313e-16 5,0 Z" id="Rectangle-9" fill="#EDEDED"></path>
                        <path d="M9.49653126,27.0535702 L15.8589872,31.2396567 C16.0470043,31.3650558 16.0470043,31.6362441 15.8589872,31.7596042 L9.49653126,35.9467102 C9.28462252,36.0853628 9,35.9375346 9,35.6867364 L9,27.313544 C9,27.0637653 9.28462252,26.9138981 9.49653126,27.0535702" id="Fill-1" fill="#4A4A4A"></path>
                    </g>
                </g>
            </g>
        </g>
    </g>
</svg>