<?xml version="1.0" encoding="UTF-8"?>
<svg width="18px" height="19px" viewBox="0 0 18 19" version="1.1" xmlns="http://www.w3.org/2000/svg" xmlns:xlink="http://www.w3.org/1999/xlink">
    <!-- Generator: Sketch 51.1 (57501) - http://www.bohemiancoding.com/sketch -->
    <title>Group 8</title>
    <desc>Created with Sketch.</desc>
    <defs>
        <path d="M15.949,0.318 C15.277,0.498 14.72,0.924 14.36,1.481 L9.985,8.51 L5.612,1.481 C5.251,0.892 4.677,0.482 4.022,0.318 C3.187,0.105 2.318,0.318 1.696,0.941 C1.073,1.563 0.843,2.415 1.073,3.268 C1.204,3.726 1.433,4.152 1.76,4.48 C1.908,4.628 2.073,4.758 2.236,4.857 L9.282,9.247 L2.236,13.606 C1.646,13.966 1.237,14.539 1.073,15.195 C0.843,16.047 1.073,16.899 1.696,17.522 C2.318,18.144 3.17,18.373 4.021,18.144 C4.693,17.964 5.251,17.537 5.611,16.981 L10.002,9.936 L14.377,16.965 C14.491,17.145 14.622,17.308 14.753,17.439 C15.08,17.767 15.49,18.012 15.965,18.128 C16.817,18.357 17.67,18.128 18.292,17.505 C18.914,16.915 19.128,16.047 18.914,15.211 C18.734,14.539 18.309,13.982 17.752,13.621 L10.706,9.231 L17.735,4.856 C18.325,4.496 18.735,3.922 18.898,3.267 C19.112,2.432 18.898,1.563 18.276,0.941 C17.812,0.477 17.221,0.231 16.596,0.231 C16.383,0.231 16.166,0.26 15.949,0.318 Z M15.359,2.088 C15.556,1.76 15.884,1.531 16.261,1.416 C16.703,1.301 17.146,1.416 17.474,1.744 C17.784,2.055 17.915,2.514 17.801,2.956 C17.686,3.333 17.456,3.661 17.129,3.857 L12.427,6.79 L15.359,2.088 Z M2.842,3.857 C2.515,3.661 2.285,3.333 2.171,2.956 C2.056,2.514 2.171,2.072 2.498,1.744 C2.81,1.433 3.269,1.301 3.711,1.416 C3.973,1.481 4.219,1.629 4.399,1.809 C4.481,1.892 4.547,1.99 4.612,2.088 L7.545,6.79 L2.842,3.857 Z M16.26,17.046 C15.884,16.932 15.556,16.702 15.359,16.374 L12.427,11.673 L17.129,14.605 C17.456,14.801 17.686,15.129 17.801,15.506 C17.915,15.949 17.8,16.391 17.473,16.718 C17.237,16.954 16.916,17.087 16.582,17.087 C16.475,17.087 16.367,17.074 16.26,17.046 Z M2.498,16.719 C2.187,16.408 2.056,15.949 2.171,15.507 C2.285,15.13 2.515,14.802 2.842,14.605 L7.545,11.673 L4.612,16.374 C4.415,16.702 4.088,16.932 3.711,17.047 C3.599,17.076 3.487,17.09 3.378,17.09 C3.052,17.09 2.743,16.964 2.498,16.719 Z" id="path-1"></path>
    </defs>
    <g id="Symbols" stroke="none" stroke-width="1" fill="none" fill-rule="evenodd">
        <g id="button/kitchensettings/speed-2" transform="translate(-63.000000, -93.000000)">
            <g id="Group-8" transform="translate(62.000000, 93.000000)">
                <mask id="mask-2" fill="white">
                    <use xlink:href="#path-1"></use>
                </mask>
                <g id="Clip-7"></g>
                <polygon id="Fill-6" fill="#FF4B2B" mask="url(#mask-2)" points="9.792 -17 35.584 8.792 9.792 34.584 -16 8.792"></polygon>
            </g>
        </g>
    </g>
</svg>