<?xml version="1.0" encoding="UTF-8"?>
<svg width="37px" height="32px" viewBox="0 0 37 32" version="1.1" xmlns="http://www.w3.org/2000/svg" xmlns:xlink="http://www.w3.org/1999/xlink">
    <!-- Generator: sketchtool 53.1 (72631) - https://sketchapp.com -->
    <title>D642526A-DE55-46E1-92B3-41261FC67A31</title>
    <desc>Created with sketchtool.</desc>
    <g id="Desktop" stroke="none" stroke-width="1" fill="none" fill-rule="evenodd">
        <g id="06.2.1-TGI-Web-XL-User-Create-Step-2" transform="translate(-1385.000000, -150.000000)" fill="#9B9B9B" fill-rule="nonzero">
            <g id="tab/step-1" transform="translate(0.000000, 120.000000)">
                <g id="04" transform="translate(1260.000000, 0.000000)">
                    <g id="icon/intro/orange" transform="translate(121.000000, 23.000000)">
                        <g id="calendar" transform="translate(4.333333, 7.000000)">
                            <path d="M35.2644628,0.950483471 L31.6398802,0.950483471 L26.7254752,0.950483471 L23.8434132,0.950483471 L21.7844238,0.950483471 L18.9290083,0.950483471 L16.0469463,0.950483471 L11.1324711,0.950483471 L7.50795868,0.950483471 C7.11997934,0.950483471 6.80547934,1.26498347 6.80547934,1.65296281 L6.80547934,7.17213223 L6.80547934,14.3823802 C2.9052438,15.3272149 0,18.8471281 0,23.033343 C0,26.780438 2.36883058,30.1479132 5.89457438,31.412938 C5.97297107,31.4410372 6.05298347,31.454314 6.1317314,31.454314 C6.41988843,31.454314 6.69006198,31.2756736 6.79297521,30.9888512 C6.9239876,30.6237025 6.73417769,30.2214628 6.36895868,30.0904504 C3.3998595,29.0252107 1.40495868,26.1891612 1.40495868,23.033343 C1.40495868,19.3231983 4.11463223,16.2345372 7.65885124,15.6410124 C8.7941281,15.4508512 10.1150702,15.5805289 11.2541405,15.9229876 C11.9946942,16.1456736 12.6824917,16.5064669 13.3017273,16.9679959 C13.9206818,17.429314 14.4816116,17.9784421 14.9515702,18.5910744 C15.4215289,19.2037769 15.784219,19.8892562 16.0031818,20.6307934 C16.2413223,21.4372397 16.3134669,22.2787397 16.3656612,23.1144091 C16.4109711,23.839157 16.250595,24.5650289 16.0557273,25.261186 C15.9049752,25.7997769 15.6804628,26.3121653 15.3911116,26.7905537 C15.1055537,27.2626198 14.7685744,27.7054628 14.3990702,28.114938 C14.0235248,28.5309463 13.6065331,28.9097231 13.1407893,29.2228182 C12.6659132,29.5420248 12.148186,29.7838884 11.6236446,30.0089628 C11.5603512,30.0361488 11.4971983,30.0673388 11.4323595,30.0905909 C11.0672107,30.2216033 10.8774008,30.623843 11.008343,30.9889917 C11.1393554,31.3542107 11.541595,31.5439504 11.906814,31.4130083 C14.7583884,30.3899174 16.8525496,27.9911612 17.5494091,25.1289091 L32.4545455,25.1289091 C32.8425248,25.1289091 33.1570248,24.8144091 33.1570248,24.4264298 C33.1570248,24.0384504 32.8425248,23.7239504 32.4545455,23.7239504 L17.7747645,23.7239504 C17.8027934,23.7231777 17.7872686,22.7138554 17.783405,22.625905 C17.715686,21.076657 17.2391942,19.5230537 16.4024711,18.2152479 C15.6656405,17.0634628 14.6245661,16.0934793 13.4590124,15.3846074 C12.3281612,14.6968802 11.0810496,14.3055992 9.7648843,14.1769752 C9.65143388,14.165876 8.21022727,14.0881116 8.21022727,14.1592727 L8.21022727,7.87468182 L34.5619835,7.87468182 L34.5619835,21.6165124 C34.5619835,22.0044917 34.8764835,22.3189917 35.2644628,22.3189917 C35.6524421,22.3189917 35.9669421,22.0044917 35.9669421,21.6165124 L35.9669421,7.17213223 L35.9669421,1.65296281 C35.9669421,1.26498347 35.6524421,0.950483471 35.2644628,0.950483471 Z M8.21022727,6.46965289 L8.21022727,2.35544215 L11.1322603,2.35544215 L16.0467355,2.35544215 L18.9287975,2.35544215 L23.8432025,2.35544215 L26.7252645,2.35544215 L31.6396694,2.35544215 L34.5619835,2.35544215 L34.5619835,6.46965289 L8.21022727,6.46965289 Z" id="Shape"></path>
                            <path d="M8.90076446,17.7152231 C8.51278512,17.7152231 8.19828512,18.0297231 8.19828512,18.4177025 L8.19828512,22.3308636 L5.83458264,22.3308636 C5.44660331,22.3308636 5.13210331,22.6453636 5.13210331,23.033343 C5.13210331,23.4213223 5.44660331,23.7358223 5.83458264,23.7358223 L8.90076446,23.7358223 C9.2887438,23.7358223 9.6032438,23.4213223 9.6032438,23.033343 L9.6032438,18.4177025 C9.6032438,18.0297231 9.2887438,17.7152231 8.90076446,17.7152231 Z" id="Path"></path>
                            <path d="M8.90076446,30.5290785 C8.51383884,30.5290785 8.19828512,30.8446322 8.19828512,31.2315579 C8.19828512,31.6184835 8.51383884,31.9340372 8.90076446,31.9340372 C9.28769008,31.9340372 9.6032438,31.6184835 9.6032438,31.2315579 C9.6032438,30.8447025 9.28769008,30.5290785 8.90076446,30.5290785 Z" id="Path"></path>
                            <path d="M35.2644628,23.7238099 C34.8775372,23.7238099 34.5619835,24.0394339 34.5619835,24.4263595 C34.5619835,24.8132149 34.8775372,25.1288388 35.2644628,25.1288388 C35.6513884,25.1288388 35.9669421,24.8132149 35.9669421,24.4263595 C35.9669421,24.0395041 35.6513884,23.7238099 35.2644628,23.7238099 Z" id="Path"></path>
                            <path d="M25.9192568,15.0219118 L19.689039,11.0572277 C19.5145929,10.9467829 19.2937033,10.9394199 19.1118943,11.038537 C18.9312179,11.1382205 18.8185076,11.3285254 18.8185076,11.5352553 L18.8185076,19.4646235 C18.8185076,19.6713534 18.9312179,19.8616583 19.1124606,19.9613417 C19.1974182,20.0077852 19.2908714,20.0310069 19.3848911,20.0310069 C19.4908048,20.0310069 19.5967185,20.0009886 19.689039,19.9426511 L25.9192568,15.977967 C26.0823753,15.8737525 26.1814924,15.6936425 26.1814924,15.4999394 C26.1814924,15.3062363 26.0823753,15.1261263 25.9192568,15.0219118 Z M19.9512745,18.4332392 L19.9512745,12.5666396 L24.5599366,15.4999394 L19.9512745,18.4332392 Z" id="Shape"></path>
                        </g>
                    </g>
                </g>
            </g>
        </g>
    </g>
</svg>