<?xml version="1.0" encoding="UTF-8"?>
<svg width="12px" height="15px" viewBox="0 0 12 15" version="1.1" xmlns="http://www.w3.org/2000/svg" xmlns:xlink="http://www.w3.org/1999/xlink">
    <!-- Generator: Sketch 51.1 (57501) - http://www.bohemiancoding.com/sketch -->
    <title>Shape</title>
    <desc>Created with Sketch.</desc>
    <defs></defs>
    <g id="Symbols" stroke="none" stroke-width="1" fill="none" fill-rule="evenodd">
        <g id="calories-3" transform="translate(-2.000000, -2.000000)" fill-rule="nonzero" stroke="#4A4A4A" stroke-width="1.5">
            <path d="M7.90965778,16 C5.59721794,16 3.18123603,14.733942 3.00866589,11.9352875 C2.87060978,9.66971008 4.406484,6.55454109 5.87333016,5.1718725 C5.9251012,5.12189652 6.01138627,5.10523787 6.08041433,5.15521384 C6.14944238,5.18853115 6.18395641,5.27182444 6.14944238,5.35511773 C6.14944238,5.37177639 5.76978808,6.50456511 6.37378356,7.30418068 C6.44281161,5.27182444 8.34108312,3.30610284 9.7043872,3.006247 C9.77341525,2.98958834 9.8251863,3.006247 9.87695734,3.05622297 C9.91147136,3.10619894 9.92872838,3.17283357 9.91147136,3.22280955 C9.44553199,4.50552619 9.73890123,5.77158417 10.8260931,7.07095947 L10.9123782,7.17091142 C11.7062008,8.13711357 13.173047,9.91958994 12.9832198,12.0685568 C12.7416216,14.6506487 10.2393546,16 7.90965778,16 Z" id="Shape" transform="translate(8.000000, 9.500000) scale(-1, 1) translate(-8.000000, -9.500000) "></path>
        </g>
    </g>
</svg>