<?xml version="1.0" encoding="UTF-8"?>
<svg width="59px" height="46px" viewBox="0 0 59 46" version="1.1" xmlns="http://www.w3.org/2000/svg" xmlns:xlink="http://www.w3.org/1999/xlink">
    <!-- Generator: Sketch 51.3 (57544) - http://www.bohemiancoding.com/sketch -->
    <title>Shape</title>
    <desc>Created with Sketch.</desc>
    <defs></defs>
    <g id="Desktop" stroke="none" stroke-width="1" fill="none" fill-rule="evenodd">
        <g id="12.0-TGI-Web-XL-Admin-Login" transform="translate(-811.000000, -193.000000)" fill="#FF4B2B" fill-rule="nonzero">
            <path d="M863.335,223.119858 L863.165,223.119858 C863.607396,222.012405 863.607396,220.777311 863.165,219.669858 L864.635,219.669858 C867.211408,219.669858 869.3,217.581266 869.3,215.004858 C869.3,212.42845 867.211408,210.339858 864.635,210.339858 L861.935,210.339858 C862.509206,208.903688 862.33341,207.276197 861.465766,205.995771 C860.598122,204.715345 859.151705,203.948853 857.605,203.949858 L853.485,203.949858 C854.392523,203.109656 854.889043,201.915817 854.845,200.679858 C855.035,200.839858 855.225,201.019858 855.445,201.249858 C856.020591,201.772713 856.903815,201.756847 857.460255,201.213656 C858.016695,200.670464 858.053836,199.787879 857.545,199.199858 C856.998722,198.614772 856.372536,198.109783 855.685,197.699858 C856.170913,196.730083 856.456589,195.672399 856.525,194.589858 C856.589684,193.798374 856.014064,193.0986 855.224964,193.00942 C854.435864,192.920241 853.718589,193.4739 853.605,194.259858 C853.550707,194.885202 853.402371,195.498775 853.165,196.079858 C852.745623,195.461825 852.196109,194.943029 851.555,194.559858 C850.078024,193.766941 848.301976,193.766941 846.825,194.559858 C844.992353,195.495868 843.419138,196.869855 842.245,198.559858 C841.385,199.749858 840.055,201.979858 840.765,203.559858 C840.820964,203.682323 840.887904,203.799468 840.965,203.909858 L838.655,203.909858 L838.655,201.299858 C838.649525,200.087107 837.667751,199.105333 836.455,199.099858 L829.865,199.099858 C828.652249,199.105333 827.670475,200.087107 827.665,201.299858 L827.665,203.949858 L815.665,203.949858 C813.088592,203.949858 811,206.03845 811,208.614858 C811,211.191266 813.088592,213.279858 815.665,213.279858 L818.365,213.279858 C817.922604,214.387311 817.922604,215.622405 818.365,216.729858 L816.915,216.729858 C814.338592,216.729858 812.25,218.81845 812.25,221.394858 C812.25,223.971266 814.338592,226.059858 816.915,226.059858 L817.085,226.059858 C816.553853,227.359538 816.638383,228.829624 817.315,230.059858 C815.375191,231.027357 814.358678,233.204669 814.862483,235.313008 C815.366287,237.421347 817.257348,238.90387 819.425,238.889858 L861.345,238.889858 C862.990856,238.892761 864.516179,238.027251 865.357828,236.612869 C866.199478,235.198487 866.232613,233.445028 865.445,231.999858 C867.383072,231.033162 868.399669,228.858637 867.898566,226.75162 C867.397464,224.644603 865.510765,223.160556 863.345,223.169858 L863.335,223.119858 Z M860.565,221.389858 C860.565,222.345311 859.790453,223.119858 858.835,223.119858 L842.545,223.119858 L842.545,219.669858 L844.855,219.669858 C845.485442,221.579104 847.269359,222.868703 849.28,222.868703 C851.290641,222.868703 853.074558,221.579104 853.705,219.669858 L858.835,219.669858 C859.786561,219.669842 860.5595,220.438313 860.565,221.389858 Z M831.945,206.889858 L833.165,206.889858 L833.165,210.339858 L831.945,210.339858 L831.945,206.889858 Z M851.015,211.789858 L851.015,218.209858 C850.946284,219.111714 850.19447,219.808424 849.29,219.808424 C848.38553,219.808424 847.633716,219.111714 847.565,218.209858 L847.565,206.889858 L851.015,206.889858 L851.015,211.789858 Z M842.545,216.739858 L842.545,213.279858 L844.615,213.279858 L844.615,216.729858 L842.545,216.739858 Z M844.615,206.889858 L844.615,210.339858 L842.545,210.339858 L842.545,206.889858 L844.615,206.889858 Z M836.165,224.589858 L836.165,206.889858 L839.615,206.889858 L839.615,224.589858 C839.546284,225.491714 838.79447,226.188424 837.89,226.188424 C836.98553,226.188424 836.233716,225.491714 836.165,224.589858 Z M866.365,214.999858 C866.365,215.955311 865.590453,216.729858 864.635,216.729858 L853.945,216.729858 L853.945,213.279858 L864.645,213.279858 C865.592658,213.28532 866.359538,214.0522 866.365,214.999858 Z M857.605,206.889858 C858.252636,206.840512 858.873343,207.158079 859.212252,207.712161 C859.551162,208.266244 859.551162,208.963472 859.212252,209.517554 C858.873343,210.071637 858.252636,210.389204 857.605,210.339858 L853.945,210.339858 L853.945,206.889858 L857.605,206.889858 Z M848.055,197.279858 C849.395,196.689858 849.935,196.999858 850.115,197.109858 C850.717945,197.560727 851.173794,198.180125 851.425,198.889858 C852.305,200.889858 852.065,201.739858 850.365,202.479858 C848.154104,203.240908 845.745192,203.194855 843.565,202.349858 C844.41712,200.180845 846.007083,198.381956 848.055,197.269858 L848.055,197.279858 Z M830.595,202.039858 L835.715,202.039858 L835.715,203.949858 L830.595,203.949858 L830.595,202.039858 Z M827.655,206.889858 L828.995,206.889858 L828.995,211.589858 C829.044346,212.237493 828.726779,212.858201 828.172696,213.19711 C827.618614,213.53602 826.921386,213.53602 826.367304,213.19711 C825.813221,212.858201 825.495654,212.237493 825.545,211.589858 L825.545,206.889858 L827.655,206.889858 Z M813.965,208.609858 C813.970462,207.6622 814.737342,206.89532 815.685,206.889858 L822.615,206.889858 L822.615,210.339858 L815.685,210.339858 C814.733455,210.334358 813.964984,209.561419 813.965,208.609858 Z M820.965,214.999858 C820.965,214.044405 821.739547,213.269858 822.695,213.269858 L822.905,213.269858 C823.60027,215.063544 825.326277,216.245644 827.25,216.245644 C829.173723,216.245644 830.89973,215.063544 831.595,213.269858 L833.165,213.269858 L833.165,216.719858 L822.725,216.719858 C821.773439,216.719874 821.0005,215.951403 820.995,214.999858 L820.965,214.999858 Z M815.165,221.389858 C815.165,220.434405 815.939547,219.659858 816.895,219.659858 L833.165,219.659858 L833.165,223.109858 L816.915,223.109858 C816.454448,223.11519 816.010783,222.936652 815.682298,222.613798 C815.353814,222.290945 815.167631,221.850433 815.165,221.389858 Z M833.425,226.049858 C834.055442,227.959104 835.839359,229.248703 837.85,229.248703 C839.860641,229.248703 841.644558,227.959104 842.275,226.049858 L863.275,226.049858 C863.922636,226.000512 864.543343,226.318079 864.882252,226.872161 C865.221162,227.426244 865.221162,228.123472 864.882252,228.677554 C864.543343,229.231637 863.922636,229.549204 863.275,229.499858 L821.425,229.499858 C820.777364,229.549204 820.156657,229.231637 819.817748,228.677554 C819.478838,228.123472 819.478838,227.426244 819.817748,226.872161 C820.156657,226.318079 820.777364,226.000512 821.425,226.049858 L833.425,226.049858 Z M861.345,235.889858 L819.425,235.889858 C818.523144,235.821142 817.826434,235.069328 817.826434,234.164858 C817.826434,233.260388 818.523144,232.508574 819.425,232.439858 L861.345,232.439858 C862.246856,232.508574 862.943566,233.260388 862.943566,234.164858 C862.943566,235.069328 862.246856,235.821142 861.345,235.889858 Z" id="Shape"></path>
        </g>
    </g>
</svg>