<?xml version="1.0" encoding="UTF-8"?>
<svg width="103px" height="144px" viewBox="0 0 103 144" version="1.1" xmlns="http://www.w3.org/2000/svg" xmlns:xlink="http://www.w3.org/1999/xlink">
    <!-- Generator: Sketch 51.3 (57544) - http://www.bohemiancoding.com/sketch -->
    <title>icon-empty-plate</title>
    <desc>Created with Sketch.</desc>
    <defs></defs>
    <g id="Desktop" stroke="none" stroke-width="1" fill="none" fill-rule="evenodd">
        <g id="10.0-TGI-Web-XL-Error" transform="translate(-789.000000, -261.000000)" fill-rule="nonzero">
            <g id="icon-empty-plate" transform="translate(791.000000, 263.000000)">
                <path d="M66.1419534,125.327195 C68.3117945,125.327195 70.4322837,124.433412 71.9638395,122.876393 L86.2545215,108.336972 C87.476805,107.094029 88.106865,105.37496 87.9851302,103.622477 C87.8617503,101.868325 86.9948009,100.259516 85.6129461,99.2053536 C83.5023273,97.5982155 80.5576605,97.5982155 78.4503319,99.2053536 L68.3200199,106.916944 L68.2904087,106.916944 C67.3625919,104.948951 65.3983839,103.5757 63.1100981,103.5757 L52.9156286,103.5757 L49.2257472,101.07645 C48.4114399,100.525145 47.4655273,100.234457 46.4867135,100.234457 L35.538804,100.234457 C34.3609373,100.234457 33.2209071,100.662136 32.3276366,101.440645 L22.8915422,109.653422 L20.6789294,107.406436 C20.0357089,106.753223 18.9960276,106.753223 18.3528071,107.406436 L8.48241539,117.430166 C7.83919487,118.083379 7.83919487,119.139212 8.48241539,119.792425 L29.868264,141.510508 C30.1890518,141.836279 30.6101885,142 31.0313252,142 C31.4524619,142 31.8735986,141.836279 32.1943863,141.510508 L42.064778,131.486777 C42.7079985,130.833564 42.7079985,129.777731 42.064778,129.124518 L39.9377086,126.964404 L41.0991247,125.784945 C41.410042,125.469198 41.8229534,125.295453 42.2638309,125.295453 C42.2638309,125.295453 42.2638309,125.295453 42.265476,125.295453 L66.132083,125.327195 C66.1353732,125.327195 66.1386633,125.327195 66.1419534,125.327195 Z M31.0313252,137.967119 L11.9715989,118.611296 L19.5158682,110.949824 L38.5755945,130.305648 L31.0313252,137.967119 Z M42.2638309,121.95421 C40.9444886,121.95421 39.7041093,122.475444 38.7730024,123.422686 L37.6115863,124.602145 L25.2242447,112.022364 L34.4662215,103.976649 C34.7672684,103.717703 35.1472785,103.5757 35.538804,103.5757 L46.4850684,103.5757 C46.8107913,103.5757 47.1266439,103.672596 47.3980796,103.856364 L51.5041626,106.636279 C51.7739533,106.818377 52.0930959,106.916944 52.4171738,106.916944 L63.1100981,106.916944 C64.4705671,106.916944 65.576051,108.039601 65.577696,109.419535 C65.577696,109.454618 65.5694707,109.48803 65.5678257,109.523113 C65.5628905,109.658434 65.5546651,109.792084 65.5283441,109.922392 C65.3046152,111.066768 64.1761004,111.928809 62.8978847,111.928809 L47.481978,111.928809 L47.481978,115.270052 L62.8978847,115.270052 L63.1100981,115.270052 C64.8357716,115.270052 66.3673274,114.479848 67.4234593,113.255282 C67.4333297,113.243588 67.4432001,113.230223 67.4530705,113.218529 C67.6455431,112.991324 67.8265003,112.755766 67.9844265,112.500161 C68.0584545,112.383218 68.1160318,112.25458 68.1818344,112.130954 C68.272313,111.957209 68.3693718,111.790147 68.4417547,111.606379 C68.5421037,111.357456 68.6144865,111.093498 68.6802892,110.827869 C68.701675,110.742667 68.7362214,110.662477 68.752672,110.575605 C68.7543171,110.567252 68.7576072,110.558899 68.7592523,110.550546 C68.7789931,110.451979 68.7937987,110.355083 68.8086043,110.256516 L68.8678266,110.256516 C69.2248058,110.256516 69.5702695,110.139573 69.8548658,109.922392 L80.4227651,101.875007 C81.3670326,101.153299 82.6896651,101.153299 83.6372227,101.875007 C84.2590574,102.347793 84.6456477,103.069502 84.7015799,103.858035 C84.7558671,104.644898 84.4729158,105.416725 83.923464,105.974713 L69.632782,120.514134 C68.7148355,121.448011 67.4432001,121.984281 66.1403084,121.984281 C66.1386633,121.984281 66.1370182,121.984281 66.1337281,121.984281 L42.267121,121.952539 C42.267121,121.95421 42.265476,121.95421 42.2638309,121.95421 Z" id="Shape" fill="#9B9B9B"></path>
                <polygon id="Shape" stroke="#9B9B9B" stroke-width="4" points="99 95 0 95 0 89 99 89"></polygon>
                <path d="M98.3254333,46.1779394 C94.9934333,26.1655758 78.9835,12.6831515 56.5333333,10.5008485 L56.5333333,5.09090909 C56.5333333,2.28412121 54.3348667,0 51.6333333,0 L48.3666667,0 C45.6651333,0 43.4666667,2.28412121 43.4666667,5.09090909 L43.4666667,10.5008485 C21.0165,12.6831515 5.00656667,26.1655758 1.67456667,46.1779394 C1.27603333,46.4867879 1,46.9585455 1,47.5151515 L1,54.3030303 C1,55.2397576 1.7301,56 2.63333333,56 L97.3666667,56 C98.2699,56 99,55.2397576 99,54.3030303 L99,47.5151515 C99,46.9585455 98.7239667,46.4867879 98.3254333,46.1779394 Z" id="Path" stroke="#9B9B9B" stroke-width="4"></path>
                <path d="M71,27 L71,30.3333333 C77.4316667,30.3333333 82.6666667,35.5666667 82.6666667,42 L86,42 C86,33.73 79.2716667,27 71,27 Z" id="Shape" fill="#9B9B9B"></path>
            </g>
        </g>
    </g>
</svg>