<?xml version="1.0" encoding="UTF-8"?>
<svg width="14px" height="14px" viewBox="0 0 14 14" version="1.1" xmlns="http://www.w3.org/2000/svg" xmlns:xlink="http://www.w3.org/1999/xlink">
    <!-- Generator: Sketch 51.1 (57501) - http://www.bohemiancoding.com/sketch -->
    <title>Shape</title>
    <desc>Created with Sketch.</desc>
    <defs></defs>
    <g id="Symbols" stroke="none" stroke-width="1" fill="none" fill-rule="evenodd">
        <g id="1-hour-3" transform="translate(0.000000, -2.000000)" fill="#FFFFFF" fill-rule="nonzero" stroke="#FFFFFF" stroke-width="0.25">
            <path d="M7,3 C3.69155556,3 1,5.69157111 1,9 C1,12.3084 3.69155556,15 7,15 C10.3084444,15 13,12.3084 13,9 C13,5.69157111 10.3084444,3 7,3 Z M7,4 C9.76656522,4 12,6.23345 12,9 C12,11.7665217 9.76656522,14 7,14 C4.23343478,14 2,11.7665217 2,9 C2,6.23345 4.23343478,4 7,4 Z M7.39308758,5 C7.17598531,5 7,5.21076096 7,5.47076382 L7,9.00149244 C7,9.1755809 7.0792268,9.32460119 7.19654379,9.40606687 C7.92947523,9.91286765 8.67168354,10.4266828 9.40766142,10.9360493 C9.59569486,11.0660507 9.8396057,10.9920231 9.94815684,10.7668568 C10.056708,10.5416904 9.98874313,10.2569254 9.800749,10.1269004 L7.78617516,8.72934388 L7.78617516,5.47076617 C7.78617516,5.21076096 7.61018985,5.00000235 7.39308758,5.00000235 L7.39308758,5 Z" id="Shape"></path>
        </g>
    </g>
</svg>