<?xml version="1.0" encoding="UTF-8"?>
<svg width="60px" height="60px" viewBox="0 0 60 60" version="1.1" xmlns="http://www.w3.org/2000/svg" xmlns:xlink="http://www.w3.org/1999/xlink">
    <!-- Generator: sketchtool 51.1 (57501) - http://www.bohemiancoding.com/sketch -->
    <title>6821AC33-1F57-484C-9A3E-18DEF2519A17</title>
    <desc>Created with sketchtool.</desc>
    <defs></defs>
    <g id="Page-1" stroke="none" stroke-width="1" fill="none" fill-rule="evenodd">
        <g id="ALL-ICONS" transform="translate(-1002.000000, -858.000000)" fill="#FF4B2B" fill-rule="nonzero">
            <g id="upload-recipe-videos" transform="translate(1002.000000, 858.000000)">
                <path d="M59,0 L1,0 C0.448,0 0,0.448 0,1 L0,59 C0,59.552 0.448,60 1,60 L59,60 C59.552,60 60,59.552 60,59 L60,1 C60,0.448 59.552,0 59,0 Z M58,58 L2,58 L2,2 L58,2 L58,58 Z" id="Shape"></path>
                <path d="M29,21 L27.854,21 C27.94,20.674 28,20.341 28,20 C28,18.921 27.57,17.911 26.819,17.169 C26.939,16.789 27,16.398 27,16 C27,13.794 25.206,12 23,12 C22.823,12 22.647,12.012 22.472,12.036 C21.775,10.802 20.458,10 19,10 C17.542,10 16.225,10.802 15.528,12.036 C15.353,12.012 15.177,12 15,12 C12.794,12 11,13.794 11,16 C11,16.398 11.061,16.789 11.181,17.169 C10.43,17.911 10,18.921 10,20 C10,20.341 10.06,20.674 10.146,21 L9,21 C8.448,21 8,21.448 8,22 L8,24 C8,27.525 10.042,30.574 13,32.05 L13,34 C13,35.654 14.346,37 16,37 L22,37 C23.654,37 25,35.654 25,34 L25,32.05 C27.958,30.574 30,27.524 30,24 L30,22 C30,21.448 29.552,21 29,21 Z M12,20 C12,19.316 12.35,18.686 12.935,18.315 C13.386,18.029 13.533,17.441 13.27,16.977 C13.091,16.661 13,16.333 13,16 C13,14.649 14.415,13.614 15.744,14.148 C16.01,14.254 16.308,14.243 16.562,14.115 C16.817,13.988 17.006,13.757 17.081,13.481 C17.317,12.609 18.106,12 19,12 C19.894,12 20.683,12.609 20.919,13.481 C20.994,13.756 21.183,13.987 21.438,14.115 C21.694,14.243 21.992,14.255 22.256,14.148 C23.586,13.614 25,14.648 25,16 C25,16.333 24.909,16.661 24.73,16.977 C24.467,17.441 24.614,18.029 25.065,18.315 C25.65,18.686 26,19.316 26,20 C26,20.411 25.876,20.745 25.723,21 L12.277,21 C12.124,20.745 12,20.411 12,20 Z M23,33 L23,34 C23,34.551 22.551,35 22,35 L16,35 C15.449,35 15,34.551 15,34 L15,33 L17,33 L21,33 L23,33 Z M28,24 C28,27.86 24.86,31 21,31 L17,31 C13.14,31 10,27.86 10,24 L10,23 L11.778,23 L26.221,23 L28,23 L28,24 Z" id="Shape"></path>
                <path d="M23,26 L23,28 C24.654,28 26,26.654 26,25 L24,25 C24,25.551 23.551,26 23,26 Z" id="Shape"></path>
                <rect id="Rectangle-path" x="17" y="17" width="2" height="2"></rect>
                <rect id="Rectangle-path" x="21" y="17" width="2" height="2"></rect>
                <rect id="Rectangle-path" x="19" y="27" width="2" height="2"></rect>
                <path d="M5,43 L33,43 C33.552,43 34,42.552 34,42 L34,5 C34,4.448 33.552,4 33,4 L5,4 C4.448,4 4,4.448 4,5 L4,42 C4,42.552 4.448,43 5,43 Z M6,6 L32,6 L32,41 L6,41 L6,6 Z" id="Shape"></path>
                <path d="M29,46 L9,46 C8.448,46 8,46.448 8,47 L8,55 C8,55.552 8.448,56 9,56 L29,56 C29.552,56 30,55.552 30,55 L30,47 C30,46.448 29.552,46 29,46 Z M28,54 L10,54 L10,48 L28,48 L28,54 Z" id="Shape"></path>
                <rect id="Rectangle-path" x="12" y="50" width="14" height="2"></rect>
                <rect id="Rectangle-path" x="36" y="20" width="2" height="2"></rect>
                <rect id="Rectangle-path" x="40" y="20" width="10" height="2"></rect>
                <rect id="Rectangle-path" x="36" y="26" width="2" height="2"></rect>
                <rect id="Rectangle-path" x="40" y="26" width="10" height="2"></rect>
                <rect id="Rectangle-path" x="36" y="32" width="2" height="2"></rect>
                <rect id="Rectangle-path" x="40" y="32" width="10" height="2"></rect>
                <rect id="Rectangle-path" x="36" y="38" width="2" height="2"></rect>
                <rect id="Rectangle-path" x="40" y="38" width="10" height="2"></rect>
                <rect id="Rectangle-path" x="52" y="20" width="4" height="2"></rect>
                <rect id="Rectangle-path" x="52" y="26" width="4" height="2"></rect>
                <rect id="Rectangle-path" x="52" y="32" width="4" height="2"></rect>
                <rect id="Rectangle-path" x="52" y="38" width="4" height="2"></rect>
                <path d="M37,16 L55,16 C55.552,16 56,15.552 56,15 L56,5 C56,4.448 55.552,4 55,4 L37,4 C36.448,4 36,4.448 36,5 L36,15 C36,15.552 36.448,16 37,16 Z M38,6 L54,6 L54,14 L38,14 L38,6 Z" id="Shape"></path>
                <rect id="Rectangle-path" x="40" y="9" width="12" height="2"></rect>
                <path d="M41,56 C42.489,56 43.869,55.529 45.005,54.733 C46.175,55.551 47.564,56 49,56 C52.86,56 56,52.86 56,49 C56,45.14 52.86,42 49,42 C45.863,42 43.173,44.059 42.303,47 L35.09,47 C34.602,47 34.185,47.353 34.104,47.834 C34.034,48.25 34,48.631 34,49 C34,52.86 37.14,56 41,56 Z M49,44 C51.757,44 54,46.243 54,49 C54,51.757 51.757,54 49,54 C48.116,54 47.254,53.764 46.498,53.323 C46.507,53.312 46.512,53.299 46.521,53.288 C46.975,52.705 47.336,52.05 47.589,51.341 C47.599,51.313 47.61,51.285 47.62,51.256 C47.734,50.923 47.823,50.58 47.886,50.227 C47.895,50.176 47.902,50.124 47.91,50.073 C47.963,49.723 48,49.366 48,49 C48,48.631 47.966,48.25 47.896,47.834 C47.815,47.353 47.398,47 46.91,47 L44.42,47 C45.195,45.208 46.968,44 49,44 Z M43.09,49 L46,49 C46,49.323 45.963,49.636 45.905,49.942 C45.899,49.972 45.897,50.002 45.891,50.032 C45.833,50.308 45.745,50.573 45.643,50.83 C45.621,50.886 45.602,50.944 45.577,50.999 C45.473,51.236 45.347,51.46 45.209,51.677 C45.169,51.74 45.13,51.804 45.086,51.865 C44.942,52.07 44.781,52.263 44.608,52.444 C44.554,52.5 44.499,52.555 44.443,52.609 C43.544,53.466 42.336,54 41,54 C38.243,54 36,51.757 36,49 L43.09,49 Z" id="Shape"></path>
                <rect id="Rectangle-path" x="38" y="50" width="2" height="2"></rect>
                <rect id="Rectangle-path" x="42" y="50" width="2" height="2"></rect>
                <path d="M52,49 L50,49 C50,49.551 49.551,50 49,50 L49,52 C50.654,52 52,50.654 52,49 Z" id="Shape"></path>
            </g>
        </g>
    </g>
</svg>