<?xml version="1.0" encoding="UTF-8"?>
<svg width="12px" height="11px" viewBox="0 0 12 11" version="1.1" xmlns="http://www.w3.org/2000/svg" xmlns:xlink="http://www.w3.org/1999/xlink">
    <!-- Generator: Sketch 51.1 (57501) - http://www.bohemiancoding.com/sketch -->
    <title>upload icon</title>
    <desc>Created with Sketch.</desc>
    <defs>
        <polygon id="path-1" points="0.231082843 0.0005 7.19183832 0.0005 7.19183832 7.6011 0.231082843 7.6011"></polygon>
        <polygon id="path-3" points="-2 5.7728 9.423 5.7728 9.423 10.3545 -2 10.3545"></polygon>
    </defs>
    <g id="Symbols" stroke="none" stroke-width="1" fill="none" fill-rule="evenodd">
        <g id="img/video/thumnails-3" transform="translate(-20.000000, -20.000000)">
            <g id="upload-icon" transform="translate(22.000000, 20.000000)">
                <mask id="mask-2" fill="white">
                    <use xlink:href="#path-1"></use>
                </mask>
                <g id="Clip-2"></g>
                <path d="M0.9787,3.3491 L3.7117,0.6991 L6.4437,3.3491 L5.3957,3.3491 C5.0467,3.3491 4.7587,3.6361 4.7587,3.9861 L4.7587,6.9231 L2.6847,6.9231 L2.6847,3.9861 C2.6847,3.6361 2.3967,3.3491 2.0467,3.3491 L0.9787,3.3491 Z M2.6437,7.6011 L4.8007,7.6011 C5.1497,7.6011 5.4367,7.3141 5.4367,6.9641 L5.4367,4.0271 L6.5467,4.0271 C6.8137,4.0271 7.0397,3.8631 7.1427,3.6161 C7.2447,3.3701 7.1837,3.1021 6.9987,2.9171 L4.1637,0.1851 C3.9167,-0.0619 3.5267,-0.0619 3.2797,0.1851 L0.4237,2.9381 C0.2397,3.1221 0.1777,3.3901 0.2807,3.6361 C0.3827,3.8831 0.6087,4.0271 0.8757,4.0271 L1.9857,4.0271 L1.9857,6.9641 C2.0057,7.3141 2.2937,7.6011 2.6437,7.6011 Z" id="Fill-1" fill="#FFFFFF" mask="url(#mask-2)"></path>
                <mask id="mask-4" fill="white">
                    <use xlink:href="#path-3"></use>
                </mask>
                <g id="Clip-5"></g>
                <path d="M7.779,9.6558 L-0.356,9.6558 C-0.89,9.6558 -1.302,9.2238 -1.302,8.7118 L-1.302,6.1228 C-1.302,5.9368 -1.445,5.7728 -1.651,5.7728 C-1.856,5.7728 -2,5.9168 -2,6.1228 L-2,8.7108 C-2,9.6148 -1.261,10.3548 -0.356,10.3548 L7.779,10.3548 C8.683,10.3548 9.423,9.6148 9.423,8.7108 L9.423,6.1228 C9.423,5.9368 9.279,5.7728 9.073,5.7728 C8.868,5.7728 8.724,5.9168 8.724,6.1228 L8.724,8.7108 C8.745,9.2448 8.313,9.6558 7.779,9.6558" id="Fill-4" fill="#FFFFFF" mask="url(#mask-4)"></path>
            </g>
        </g>
    </g>
</svg>